ffmpeg started on 2016-12-01 at 06:45:57
Report written to "Output/x264/results/ffmpeg/old_town_cross_2160p50medium8000k.log"
Command line:
Tools/ffmpeg/ffmpeg -benchmark -y -i Input/y4m/old_town_cross_2160p50.y4m -c:v libx264 -preset medium -b:v 8000k -an Output/x264/encoded/old_town_cross_2160p50medium8000k.mkv
ffmpeg version N-82227-gdb23fde Copyright (c) 2000-2016 the FFmpeg developers
  built with gcc 5.4.0 (Ubuntu 5.4.0-6ubuntu1~16.04.2) 20160609
  configuration: --prefix=/home/jaroslav/ffmpeg_build --pkg-config-flags=--static --extra-cflags=-I/home/jaroslav/ffmpeg_build/include --extra-ldflags=-L/home/jaroslav/ffmpeg_build/lib --bindir=/home/jaroslav/bin --enable-gpl --enable-libass --enable-libfdk-aac --enable-libfreetype --enable-libmp3lame --enable-libopus --enable-libtheora --enable-libvorbis --enable-libvpx --enable-libx264 --enable-libx265 --enable-nvenc --enable-libmfx --enable-libxvid --enable-libgsm --enable-libopencore-amrnb --enable-version3 --enable-nonfree
  libavutil      55. 35.100 / 55. 35.100
  libavcodec     57. 66.101 / 57. 66.101
  libavformat    57. 57.100 / 57. 57.100
  libavdevice    57.  2.100 / 57.  2.100
  libavfilter     6. 66.100 /  6. 66.100
  libswscale      4.  3.100 /  4.  3.100
  libswresample   2.  4.100 /  2.  4.100
  libpostproc    54.  2.100 / 54.  2.100
Input #0, yuv4mpegpipe, from 'Input/y4m/old_town_cross_2160p50.y4m':
  Duration: 00:00:10.00, start: 0.000000, bitrate: 4976642 kb/s
    Stream #0:0: Video: rawvideo (I420 / 0x30323449), yuv420p(progressive), 3840x2160, SAR 1:1 DAR 16:9, 50 fps, 50 tbr, 50 tbn, 50 tbc
[libx264 @ 0x3341120] using SAR=1/1
[libx264 @ 0x3341120] using cpu capabilities: MMX2 SSE2Fast SSSE3 SSE4.2 AVX FMA3 AVX2 LZCNT BMI2
[libx264 @ 0x3341120] profile High, level 5.2
[libx264 @ 0x3341120] 264 - core 148 - H.264/MPEG-4 AVC codec - Copyleft 2003-2016 - http://www.videolan.org/x264.html - options: cabac=1 ref=3 deblock=1:0:0 analyse=0x3:0x113 me=hex subme=7 psy=1 psy_rd=1.00:0.00 mixed_ref=1 me_range=16 chroma_me=1 trellis=1 8x8dct=1 cqm=0 deadzone=21,11 fast_pskip=1 chroma_qp_offset=-2 threads=6 lookahead_threads=1 sliced_threads=0 nr=0 decimate=1 interlaced=0 bluray_compat=0 constrained_intra=0 bframes=3 b_pyramid=2 b_adapt=1 b_bias=0 direct=1 weightb=1 open_gop=0 weightp=2 keyint=250 keyint_min=25 scenecut=40 intra_refresh=0 rc_lookahead=40 rc=abr mbtree=1 bitrate=8000 ratetol=1.0 qcomp=0.60 qpmin=0 qpmax=69 qpstep=4 ip_ratio=1.40 aq=1:1.00
Output #0, matroska, to 'Output/x264/encoded/old_town_cross_2160p50medium8000k.mkv':
  Metadata:
    encoder         : Lavf57.57.100
    Stream #0:0: Video: h264 (libx264) (H264 / 0x34363248), yuv420p, 3840x2160 [SAR 1:1 DAR 16:9], q=-1--1, 8000 kb/s, 50 fps, 1k tbn, 50 tbc
    Metadata:
      encoder         : Lavc57.66.101 libx264
    Side data:
      cpb: bitrate max/min/avg: 0/0/8000000 buffer size: 0 vbv_delay: -1
Stream mapping:
  Stream #0:0 -> #0:0 (rawvideo (native) -> h264 (libx264))
Press [q] to stop, [?] for help
frame=   47 fps= 19 q=0.0 size=       0kB time=00:00:00.00 bitrate=N/A speed=   0x    frame=   55 fps= 18 q=44.0 size=       1kB time=00:00:00.04 bitrate= 143.2kbits/s speed=0.0134x    frame=   63 fps= 18 q=39.0 size=       1kB time=00:00:00.20 bitrate=  29.2kbits/s speed=0.056x    frame=   70 fps= 17 q=38.0 size=       1kB time=00:00:00.34 bitrate=  17.2kbits/s speed=0.0823x    frame=   78 fps= 16 q=37.0 size=       1kB time=00:00:00.50 bitrate=  11.7kbits/s speed=0.106x    frame=   85 fps= 16 q=36.0 size=       1kB time=00:00:00.64 bitrate=   9.2kbits/s speed=0.122x    frame=   91 fps= 16 q=35.0 size=       1kB time=00:00:00.76 bitrate=   7.7kbits/s speed=0.132x    frame=   98 fps= 16 q=35.0 size=       1kB time=00:00:00.90 bitrate=   6.5kbits/s speed=0.143x    frame=  105 fps= 15 q=35.0 size=       1kB time=00:00:01.04 bitrate=   5.6kbits/s speed=0.152x    frame=  113 fps= 15 q=35.0 size=       1kB time=00:00:01.20 bitrate=   4.9kbits/s speed=0.158x    frame=  120 fps= 15 q=35.0 size=       1kB time=00:00:01.34 bitrate=   4.4kbits/s speed=0.166x    frame=  126 fps= 15 q=35.0 size=       1kB time=00:00:01.46 bitrate=   4.0kbits/s speed=0.168x    frame=  134 fps= 14 q=35.0 size=       1kB time=00:00:01.62 bitrate=   3.6kbits/s speed=0.174x    frame=  140 fps= 14 q=35.0 size=       1kB time=00:00:01.74 bitrate=   3.4kbits/s speed=0.176x    frame=  147 fps= 14 q=35.0 size=       1kB time=00:00:01.88 bitrate=   3.1kbits/s speed=0.181x    frame=  154 fps= 14 q=35.0 size=       1kB time=00:00:02.02 bitrate=   2.9kbits/s speed=0.184x    frame=  159 fps= 14 q=35.0 size=       1kB time=00:00:02.12 bitrate=   2.8kbits/s speed=0.185x    frame=  166 fps= 14 q=34.0 size=       1kB time=00:00:02.26 bitrate=   2.6kbits/s speed=0.187x    frame=  173 fps= 14 q=34.0 size=       1kB time=00:00:02.40 bitrate=   2.4kbits/s speed=0.189x    frame=  180 fps= 14 q=34.0 size=       1kB time=00:00:02.54 bitrate=   2.3kbits/s speed=0.191x    frame=  187 fps= 14 q=34.0 size=       1kB time=00:00:02.68 bitrate=   2.2kbits/s speed=0.194x    frame=  194 fps= 14 q=34.0 size=       1kB time=00:00:02.82 bitrate=   2.1kbits/s speed=0.196x    frame=  199 fps= 13 q=34.0 size=       1kB time=00:00:02.92 bitrate=   2.0kbits/s speed=0.195x    frame=  206 fps= 13 q=34.0 size=       1kB time=00:00:03.06 bitrate=   1.9kbits/s speed=0.197x    frame=  214 fps= 13 q=34.0 size=       1kB time=00:00:03.22 bitrate=   1.8kbits/s speed=0.199x    frame=  222 fps= 13 q=34.0 size=       1kB time=00:00:03.38 bitrate=   1.7kbits/s speed= 0.2x    frame=  230 fps= 13 q=34.0 size=       1kB time=00:00:03.54 bitrate=   1.7kbits/s speed=0.202x    frame=  237 fps= 13 q=34.0 size=       1kB time=00:00:03.68 bitrate=   1.6kbits/s speed=0.202x    frame=  244 fps= 13 q=34.0 size=       1kB time=00:00:03.82 bitrate=   1.5kbits/s speed=0.204x    frame=  251 fps= 13 q=34.0 size=       1kB time=00:00:03.96 bitrate=   1.5kbits/s speed=0.206x    frame=  258 fps= 13 q=34.0 size=       1kB time=00:00:04.10 bitrate=   1.4kbits/s speed=0.207x    frame=  262 fps= 12 q=34.0 size=       1kB time=00:00:04.18 bitrate=   1.4kbits/s speed=0.198x    frame=  263 fps= 12 q=34.0 size=       1kB time=00:00:04.20 bitrate=   1.4kbits/s speed=0.193x    frame=  265 fps= 12 q=34.0 size=       1kB time=00:00:04.24 bitrate=   1.4kbits/s speed=0.188x    frame=  270 fps= 12 q=35.0 size=       1kB time=00:00:04.34 bitrate=   1.4kbits/s speed=0.188x    frame=  275 fps= 12 q=35.0 size=       1kB time=00:00:04.44 bitrate=   1.3kbits/s speed=0.187x    frame=  280 fps= 12 q=35.0 size=       1kB time=00:00:04.54 bitrate=   1.3kbits/s speed=0.187x    frame=  285 fps= 11 q=35.0 size=       1kB time=00:00:04.64 bitrate=   1.3kbits/s speed=0.186x    frame=  290 fps= 11 q=35.0 size=       1kB time=00:00:04.74 bitrate=   1.2kbits/s speed=0.185x    frame=  295 fps= 11 q=32.0 size=       1kB time=00:00:04.84 bitrate=   1.2kbits/s speed=0.185x    frame=  301 fps= 11 q=35.0 size=    4730kB time=00:00:04.96 bitrate=7810.9kbits/s speed=0.186x    frame=  307 fps= 11 q=36.0 size=    4730kB time=00:00:05.08 bitrate=7626.5kbits/s speed=0.186x    frame=  315 fps= 11 q=36.0 size=    4730kB time=00:00:05.24 bitrate=7393.6kbits/s speed=0.187x    frame=  323 fps= 11 q=36.0 size=    4730kB time=00:00:05.40 bitrate=7174.6kbits/s speed=0.189x    frame=  330 fps= 11 q=36.0 size=    4730kB time=00:00:05.54 bitrate=6993.3kbits/s speed=0.19x    frame=  335 fps= 11 q=35.0 size=    4730kB time=00:00:05.64 bitrate=6869.4kbits/s speed=0.19x    frame=  343 fps= 11 q=35.0 size=    4730kB time=00:00:05.80 bitrate=6679.9kbits/s speed=0.191x    frame=  348 fps= 11 q=35.0 size=    4730kB time=00:00:05.90 bitrate=6566.7kbits/s speed=0.191x    frame=  355 fps= 11 q=35.0 size=    4730kB time=00:00:06.04 bitrate=6414.5kbits/s speed=0.192x    frame=  363 fps= 11 q=35.0 size=    4730kB time=00:00:06.20 bitrate=6249.0kbits/s speed=0.193x    frame=  368 fps= 11 q=35.0 size=    4730kB time=00:00:06.30 bitrate=6149.8kbits/s speed=0.193x    frame=  375 fps= 11 q=35.0 size=    4730kB time=00:00:06.44 bitrate=6016.2kbits/s speed=0.194x    frame=  383 fps= 11 q=35.0 size=    4730kB time=00:00:06.60 bitrate=5870.3kbits/s speed=0.195x    frame=  391 fps= 11 q=35.0 size=    4730kB time=00:00:06.76 bitrate=5731.4kbits/s speed=0.195x    frame=  398 fps= 11 q=35.0 size=    4730kB time=00:00:06.90 bitrate=5615.1kbits/s speed=0.196x    frame=  406 fps= 11 q=35.0 size=    4730kB time=00:00:07.06 bitrate=5487.9kbits/s speed=0.197x    frame=  412 fps= 11 q=35.0 size=    4730kB time=00:00:07.18 bitrate=5396.2kbits/s speed=0.198x    frame=  416 fps= 11 q=35.0 size=    4730kB time=00:00:07.26 bitrate=5336.7kbits/s speed=0.197x    frame=  423 fps= 11 q=35.0 size=    4730kB time=00:00:07.40 bitrate=5235.8kbits/s speed=0.198x    frame=  430 fps= 11 q=35.0 size=    4730kB time=00:00:07.54 bitrate=5138.6kbits/s speed=0.199x    frame=  436 fps= 11 q=35.0 size=    4730kB time=00:00:07.66 bitrate=5058.1kbits/s speed= 0.2x    frame=  443 fps= 11 q=35.0 size=    4730kB time=00:00:07.80 bitrate=4967.3kbits/s speed= 0.2x    frame=  450 fps= 11 q=35.0 size=    4730kB time=00:00:07.94 bitrate=4879.8kbits/s speed= 0.2x    frame=  458 fps= 11 q=35.0 size=    4730kB time=00:00:08.10 bitrate=4783.4kbits/s speed= 0.2x    frame=  465 fps= 11 q=35.0 size=    4730kB time=00:00:08.24 bitrate=4702.1kbits/s speed=0.201x    frame=  472 fps= 11 q=35.0 size=    4730kB time=00:00:08.38 bitrate=4623.6kbits/s speed=0.201x    frame=  478 fps= 11 q=35.0 size=    4730kB time=00:00:08.50 bitrate=4558.3kbits/s speed=0.202x    frame=  486 fps= 11 q=35.0 size=    4730kB time=00:00:08.66 bitrate=4474.1kbits/s speed=0.203x    frame=  492 fps= 11 q=35.0 size=    4730kB time=00:00:08.78 bitrate=4412.9kbits/s speed=0.203x    frame=  499 fps= 11 q=35.0 size=    4730kB time=00:00:08.92 bitrate=4343.7kbits/s speed=0.203x    frame=  500 fps= 10 q=-1.0 Lsize=    9859kB time=00:00:09.94 bitrate=8124.0kbits/s speed=0.205x    
video:9854kB audio:0kB subtitle:0kB other streams:0kB global headers:0kB muxing overhead: 0.045458%
bench: utime=167.840s
bench: maxrss=1926760kB
[libx264 @ 0x3341120] frame I:3     Avg QP:31.00  size:286397
[libx264 @ 0x3341120] frame P:183   Avg QP:33.00  size: 27761
[libx264 @ 0x3341120] frame B:314   Avg QP:34.66  size: 13218
[libx264 @ 0x3341120] consecutive B-frames: 16.0%  0.8%  0.0% 83.2%
[libx264 @ 0x3341120] mb I  I16..4: 10.4% 74.8% 14.7%
[libx264 @ 0x3341120] mb P  I16..4:  0.0%  0.1%  0.0%  P16..4: 29.1%  1.6%  1.4%  0.0%  0.0%    skip:67.8%
[libx264 @ 0x3341120] mb B  I16..4:  0.0%  0.0%  0.0%  B16..8: 37.6%  0.1%  0.0%  direct: 0.0%  skip:62.3%  L0:46.7% L1:53.3% BI: 0.0%
[libx264 @ 0x3341120] final ratefactor: 27.12
[libx264 @ 0x3341120] 8x8 transform intra:74.2% inter:93.3%
[libx264 @ 0x3341120] coded y,uvDC,uvAC intra: 61.9% 65.7% 40.8% inter: 4.5% 4.3% 0.0%
[libx264 @ 0x3341120] i16 v,h,dc,p: 29% 39% 14% 19%
[libx264 @ 0x3341120] i8 v,h,dc,ddl,ddr,vr,hd,vl,hu: 21% 21% 25%  5%  5%  5%  8%  4%  7%
[libx264 @ 0x3341120] i4 v,h,dc,ddl,ddr,vr,hd,vl,hu: 23% 28% 11%  6%  7%  6%  9%  4%  6%
[libx264 @ 0x3341120] i8c dc,h,v,p: 65% 17% 15%  3%
[libx264 @ 0x3341120] Weighted P-Frames: Y:0.5% UV:0.0%
[libx264 @ 0x3341120] ref P L0: 56.8% 32.2%  8.8%  2.2%  0.0%
[libx264 @ 0x3341120] ref B L0: 88.6% 10.1%  1.4%
[libx264 @ 0x3341120] ref B L1: 96.4%  3.6%
[libx264 @ 0x3341120] kb/s:8071.89
